<mxfile host="app.diagrams.net" modified="2024-02-18T08:41:42.311Z" agent="Mozilla/5.0 (Windows NT 10.0; Win64; x64) AppleWebKit/537.36 (KHTML, like Gecko) Chrome/121.0.0.0 Safari/537.36" etag="89NDkGDmB-OetVaKsqGb" version="22.1.21" type="device">
  <diagram name="Timer hoạt động chính" id="74e2e168-ea6b-b213-b513-2b3c1d86103e">
    <mxGraphModel dx="1456" dy="657" grid="1" gridSize="10" guides="1" tooltips="1" connect="1" arrows="1" fold="1" page="1" pageScale="1" pageWidth="1100" pageHeight="850" background="none" math="0" shadow="0">
      <root>
        <mxCell id="0" />
        <mxCell id="1" parent="0" />
        <mxCell id="_Q9rmCRQ6GxEU7oyj1-Q-67" style="edgeStyle=orthogonalEdgeStyle;rounded=0;orthogonalLoop=1;jettySize=auto;html=1;entryX=0.5;entryY=0;entryDx=0;entryDy=0;" edge="1" parent="1" source="_Q9rmCRQ6GxEU7oyj1-Q-57" target="_Q9rmCRQ6GxEU7oyj1-Q-66">
          <mxGeometry relative="1" as="geometry" />
        </mxCell>
        <mxCell id="_Q9rmCRQ6GxEU7oyj1-Q-57" value="Begin" style="strokeWidth=2;html=1;shape=mxgraph.flowchart.terminator;whiteSpace=wrap;" vertex="1" parent="1">
          <mxGeometry x="170" y="20" width="100" height="60" as="geometry" />
        </mxCell>
        <mxCell id="_Q9rmCRQ6GxEU7oyj1-Q-61" value="" style="edgeStyle=orthogonalEdgeStyle;rounded=0;orthogonalLoop=1;jettySize=auto;html=1;" edge="1" parent="1" source="_Q9rmCRQ6GxEU7oyj1-Q-58" target="_Q9rmCRQ6GxEU7oyj1-Q-60">
          <mxGeometry relative="1" as="geometry" />
        </mxCell>
        <mxCell id="_Q9rmCRQ6GxEU7oyj1-Q-64" value="Yes" style="edgeLabel;html=1;align=center;verticalAlign=middle;resizable=0;points=[];" vertex="1" connectable="0" parent="_Q9rmCRQ6GxEU7oyj1-Q-61">
          <mxGeometry x="-0.2179" relative="1" as="geometry">
            <mxPoint as="offset" />
          </mxGeometry>
        </mxCell>
        <mxCell id="_Q9rmCRQ6GxEU7oyj1-Q-69" style="edgeStyle=orthogonalEdgeStyle;rounded=0;orthogonalLoop=1;jettySize=auto;html=1;entryX=0;entryY=0.5;entryDx=0;entryDy=0;" edge="1" parent="1" source="_Q9rmCRQ6GxEU7oyj1-Q-58" target="_Q9rmCRQ6GxEU7oyj1-Q-66">
          <mxGeometry relative="1" as="geometry">
            <Array as="points">
              <mxPoint x="110" y="260" />
              <mxPoint x="110" y="150" />
            </Array>
          </mxGeometry>
        </mxCell>
        <mxCell id="_Q9rmCRQ6GxEU7oyj1-Q-70" value="No" style="edgeLabel;html=1;align=center;verticalAlign=middle;resizable=0;points=[];" vertex="1" connectable="0" parent="_Q9rmCRQ6GxEU7oyj1-Q-69">
          <mxGeometry x="-0.7353" y="-1" relative="1" as="geometry">
            <mxPoint as="offset" />
          </mxGeometry>
        </mxCell>
        <mxCell id="_Q9rmCRQ6GxEU7oyj1-Q-58" value="Run Profile?" style="rhombus;whiteSpace=wrap;html=1;strokeWidth=2;" vertex="1" parent="1">
          <mxGeometry x="180" y="220" width="80" height="80" as="geometry" />
        </mxCell>
        <mxCell id="_Q9rmCRQ6GxEU7oyj1-Q-71" style="edgeStyle=orthogonalEdgeStyle;rounded=0;orthogonalLoop=1;jettySize=auto;html=1;entryX=0;entryY=0.5;entryDx=0;entryDy=0;" edge="1" parent="1" source="_Q9rmCRQ6GxEU7oyj1-Q-60" target="_Q9rmCRQ6GxEU7oyj1-Q-66">
          <mxGeometry relative="1" as="geometry">
            <Array as="points">
              <mxPoint x="110" y="390" />
              <mxPoint x="110" y="150" />
            </Array>
          </mxGeometry>
        </mxCell>
        <mxCell id="_Q9rmCRQ6GxEU7oyj1-Q-60" value="- Đọc các thông số của profile đang chạy.&lt;br&gt;- So sánh nhiệt độ để cảnh báo.&lt;br&gt;- Log giá trị nhiệt độ khi run profile." style="whiteSpace=wrap;html=1;strokeWidth=2;align=left;" vertex="1" parent="1">
          <mxGeometry x="130" y="340" width="180" height="100" as="geometry" />
        </mxCell>
        <mxCell id="_Q9rmCRQ6GxEU7oyj1-Q-68" style="edgeStyle=orthogonalEdgeStyle;rounded=0;orthogonalLoop=1;jettySize=auto;html=1;" edge="1" parent="1" source="_Q9rmCRQ6GxEU7oyj1-Q-66" target="_Q9rmCRQ6GxEU7oyj1-Q-58">
          <mxGeometry relative="1" as="geometry" />
        </mxCell>
        <mxCell id="_Q9rmCRQ6GxEU7oyj1-Q-75" style="edgeStyle=orthogonalEdgeStyle;rounded=0;orthogonalLoop=1;jettySize=auto;html=1;entryX=0;entryY=0.5;entryDx=0;entryDy=0;" edge="1" parent="1" source="_Q9rmCRQ6GxEU7oyj1-Q-66" target="_Q9rmCRQ6GxEU7oyj1-Q-74">
          <mxGeometry relative="1" as="geometry" />
        </mxCell>
        <mxCell id="_Q9rmCRQ6GxEU7oyj1-Q-66" value="Chạy timer log nhiệt độ theo thời gian" style="whiteSpace=wrap;html=1;strokeWidth=2;" vertex="1" parent="1">
          <mxGeometry x="160" y="120" width="120" height="60" as="geometry" />
        </mxCell>
        <mxCell id="_Q9rmCRQ6GxEU7oyj1-Q-74" value="Đọc các thông số của tất cả các profile của tất cả đồng hồ watlow lên, lưu vào data máy tính" style="rounded=1;whiteSpace=wrap;html=1;absoluteArcSize=1;arcSize=14;strokeWidth=2;align=left;" vertex="1" parent="1">
          <mxGeometry x="370" y="120" width="230" height="60" as="geometry" />
        </mxCell>
      </root>
    </mxGraphModel>
  </diagram>
</mxfile>
